<svg width="100" height="100" viewBox="0 0 100 100" fill="none" xmlns="http://www.w3.org/2000/svg">
<g clip-path="url(#clip0_116_2)">
<rect width="100" height="100" rx="15" fill="url(#paint0_linear_116_2)"/>
<path d="M97.9114 45.3007C97.786 44.7676 97.5305 44.2735 97.1674 43.862C96.8043 43.4505 96.3448 43.1344 95.8295 42.9417L62.7711 30.6136L71.1432 -11.0167C71.286 -11.7272 71.1919 -12.4647 70.8752 -13.1173C70.5585 -13.7698 70.0364 -14.3018 69.3882 -14.6327C68.74 -14.9635 68.0009 -15.075 67.2832 -14.9503C66.5655 -14.8257 65.9082 -14.4717 65.4111 -13.9419L2.89986 52.6665C2.52444 53.0668 2.25402 53.553 2.11253 54.082C1.97105 54.611 1.96285 55.1665 2.08867 55.6994C2.21449 56.2323 2.47045 56.7261 2.8339 57.1372C3.19735 57.5483 3.65708 57.8639 4.17241 58.0562L37.2308 70.3843L28.8588 112.015C28.715 112.725 28.8084 113.463 29.1247 114.116C29.441 114.77 29.9629 115.302 30.6113 115.634C31.0853 115.873 31.6091 115.998 32.1406 116C32.6003 116 33.0551 115.906 33.4766 115.723C33.8982 115.541 34.2775 115.274 34.5908 114.94L97.1021 48.3314C97.4768 47.9311 97.7467 47.4453 97.8878 46.9167C98.029 46.3881 98.037 45.8331 97.9114 45.3007ZM37.722 101.824L44.3359 68.9189C44.4928 68.1438 44.3672 67.3384 43.9817 66.6469C43.5962 65.9554 42.9759 65.4228 42.2317 65.1445L11.1993 53.5713L62.2465 -0.825625L55.6493 32.0845C55.4924 32.8596 55.6179 33.665 56.0035 34.3565C56.389 35.0481 57.0093 35.5806 57.7535 35.859L88.7858 47.4322L37.722 101.824Z" fill="#428145"/>
<g filter="url(#filter0_d_116_2)">
<path d="M16.6473 59.0491V44.8724H11.026V39.8544H28.74V44.8724H23.1187V59.0491H16.6473ZM36.213 59.3233C35.0248 59.3233 33.9462 59.0856 32.9773 58.6103C32.0268 58.1168 31.2772 57.3581 30.7288 56.3344C30.1804 55.2924 29.9062 53.9579 29.9062 52.3309V44.0498H36.1033V51.2615C36.1033 52.3218 36.277 53.0622 36.6243 53.4826C36.9717 53.9031 37.447 54.1133 38.0502 54.1133C38.4158 54.1133 38.754 54.0219 39.0648 53.8391C39.3939 53.638 39.6589 53.3181 39.86 52.8794C40.0611 52.4223 40.1616 51.8282 40.1616 51.097V44.0498H46.3588V59.0491H40.4633V54.7166L41.6424 55.8957C41.1122 57.0656 40.3536 57.934 39.3664 58.5007C38.3976 59.0491 37.3464 59.3233 36.213 59.3233ZM59.1162 59.3233C57.8182 59.3233 56.7397 59.0491 55.8805 58.5007C55.0396 57.934 54.418 57.0839 54.0159 55.9505C53.6137 54.7988 53.4126 53.3364 53.4126 51.5631C53.4126 49.7534 53.5954 48.2818 53.961 47.1484C54.3449 45.9967 54.9573 45.1466 55.7982 44.5982C56.6391 44.0498 57.7451 43.7756 59.1162 43.7756C60.4324 43.7756 61.6389 44.0955 62.7357 44.7353C63.8326 45.3569 64.7101 46.2526 65.3682 47.4226C66.0263 48.5743 66.3553 49.9545 66.3553 51.5631C66.3553 53.1718 66.0263 54.5612 65.3682 55.7311C64.7101 56.8828 63.8326 57.7694 62.7357 58.391C61.6389 59.0125 60.4324 59.3233 59.1162 59.3233ZM49.1075 64.3687V44.0498H55.003V46.079L55.0304 51.5631L55.3047 57.0473V64.3687H49.1075ZM57.6354 54.4972C58.0925 54.4972 58.5038 54.3875 58.8694 54.1681C59.235 53.9488 59.5275 53.6197 59.7469 53.181C59.9662 52.7422 60.0759 52.203 60.0759 51.5631C60.0759 50.905 59.9662 50.3566 59.7469 49.9179C59.5275 49.4792 59.235 49.1501 58.8694 48.9307C58.5038 48.7114 58.0925 48.6017 57.6354 48.6017C57.1784 48.6017 56.7671 48.7114 56.4015 48.9307C56.0359 49.1501 55.7434 49.4792 55.524 49.9179C55.3047 50.3566 55.195 50.905 55.195 51.5631C55.195 52.203 55.3047 52.7422 55.524 53.181C55.7434 53.6197 56.0359 53.9488 56.4015 54.1681C56.7671 54.3875 57.1784 54.4972 57.6354 54.4972ZM77.009 59.0491V56.3892L76.5703 55.6763V50.6308C76.5703 49.8996 76.3418 49.342 75.8847 48.9582C75.446 48.5743 74.7239 48.3823 73.7185 48.3823C73.0421 48.3823 72.3566 48.492 71.6619 48.7114C70.9672 48.9125 70.3731 49.1958 69.8795 49.5614L67.9052 45.4757C68.7827 44.9273 69.8338 44.5068 71.0586 44.2143C72.2834 43.9218 73.4808 43.7756 74.6508 43.7756C77.2284 43.7756 79.221 44.3514 80.6286 45.5031C82.0545 46.6548 82.7674 48.4829 82.7674 50.9873V59.0491H77.009ZM72.7587 59.3233C71.5339 59.3233 70.5102 59.1131 69.6876 58.6926C68.865 58.2721 68.2434 57.7146 67.823 57.0199C67.4025 56.307 67.1923 55.5209 67.1923 54.6617C67.1923 53.6928 67.4391 52.8702 67.9327 52.1938C68.4262 51.5174 69.1757 51.0056 70.1812 50.6583C71.2049 50.3109 72.4937 50.1373 74.0475 50.1373H77.1735V53.1261H75.0347C74.3766 53.1261 73.8921 53.2358 73.5814 53.4552C73.2889 53.6563 73.1426 53.9671 73.1426 54.3875C73.1426 54.7348 73.2706 55.0273 73.5265 55.265C73.8007 55.4843 74.1664 55.594 74.6234 55.594C75.0438 55.594 75.4277 55.4843 75.7751 55.265C76.1407 55.0273 76.4057 54.6617 76.5703 54.1681L77.3655 56.0053C77.1278 57.1205 76.6251 57.9522 75.8573 58.5007C75.0895 59.0491 74.0567 59.3233 72.7587 59.3233ZM77.5848 42.6788C77.073 42.6788 76.616 42.5965 76.2138 42.432C75.8299 42.2674 75.4734 42.0846 75.1444 41.8835C74.8336 41.6642 74.5502 41.4722 74.2943 41.3077C74.0384 41.1432 73.7825 41.0609 73.5265 41.0609C73.1792 41.0609 72.8959 41.1797 72.6765 41.4174C72.4571 41.655 72.3292 41.9841 72.2926 42.4045H69.3585C69.3951 40.9604 69.7424 39.8087 70.4005 38.9495C71.0586 38.0903 71.9727 37.6607 73.1426 37.6607C73.6545 37.6607 74.1024 37.743 74.4863 37.9075C74.8884 38.072 75.2449 38.264 75.5557 38.4833C75.8847 38.6844 76.1772 38.8672 76.4332 39.0318C76.7074 39.1963 76.9633 39.2786 77.2009 39.2786C77.5666 39.2786 77.859 39.1689 78.0784 38.9495C78.2978 38.7119 78.4166 38.4011 78.4349 38.0172H81.3689C81.3507 39.4065 81.0033 40.5308 80.3269 41.39C79.6688 42.2492 78.7548 42.6788 77.5848 42.6788ZM88.2426 59.3233C87.2189 59.3233 86.3597 58.9942 85.665 58.3361C84.9704 57.6597 84.623 56.8006 84.623 55.7586C84.623 54.6983 84.9704 53.8482 85.665 53.2084C86.3597 52.5686 87.2189 52.2487 88.2426 52.2487C89.2663 52.2487 90.1255 52.5686 90.8202 53.2084C91.5148 53.8482 91.8622 54.6983 91.8622 55.7586C91.8622 56.8006 91.5148 57.6597 90.8202 58.3361C90.1255 58.9942 89.2663 59.3233 88.2426 59.3233Z" fill="white"/>
</g>
</g>
<defs>
<filter id="filter0_d_116_2" x="7.426" y="37.6607" width="88.0362" height="33.908" filterUnits="userSpaceOnUse" color-interpolation-filters="sRGB">
<feFlood flood-opacity="0" result="BackgroundImageFix"/>
<feColorMatrix in="SourceAlpha" type="matrix" values="0 0 0 0 0 0 0 0 0 0 0 0 0 0 0 0 0 0 127 0" result="hardAlpha"/>
<feOffset dy="3.6"/>
<feGaussianBlur stdDeviation="1.8"/>
<feComposite in2="hardAlpha" operator="out"/>
<feColorMatrix type="matrix" values="0 0 0 0 0 0 0 0 0 0 0 0 0 0 0 0 0 0 0.25 0"/>
<feBlend mode="normal" in2="BackgroundImageFix" result="effect1_dropShadow_116_2"/>
<feBlend mode="normal" in="SourceGraphic" in2="effect1_dropShadow_116_2" result="shape"/>
</filter>
<linearGradient id="paint0_linear_116_2" x1="50" y1="0" x2="50" y2="100" gradientUnits="userSpaceOnUse">
<stop stop-color="#4ECB71"/>
<stop offset="1" stop-color="#3EA85C"/>
</linearGradient>
<clipPath id="clip0_116_2">
<rect width="100" height="100" rx="15" fill="white"/>
</clipPath>
</defs>
</svg>
